<?xml version="1.0" encoding="UTF-8" standalone="no"?>
<svg
   width="1080"
   height="1080"
   viewBox="0 0 1080 1080"
   version="1.1"
   id="svg8"
   sodipodi:docname="kiswe.svg"
   inkscape:version="1.2.1 (9c6d41e4, 2022-07-14)"
   inkscape:export-filename="kiswe.jpg"
   inkscape:export-xdpi="96"
   inkscape:export-ydpi="96"
   xmlns:inkscape="http://www.inkscape.org/namespaces/inkscape"
   xmlns:sodipodi="http://sodipodi.sourceforge.net/DTD/sodipodi-0.dtd"
   xmlns="http://www.w3.org/2000/svg"
   xmlns:svg="http://www.w3.org/2000/svg">
  <defs
     id="defs12" />
  <sodipodi:namedview
     id="namedview10"
     pagecolor="#ffffff"
     bordercolor="#000000"
     borderopacity="0.25"
     inkscape:showpageshadow="2"
     inkscape:pageopacity="0.0"
     inkscape:pagecheckerboard="0"
     inkscape:deskcolor="#d1d1d1"
     showgrid="false"
     inkscape:zoom="0.91314894"
     inkscape:cx="494.44289"
     inkscape:cy="506.48912"
     inkscape:window-width="1792"
     inkscape:window-height="1067"
     inkscape:window-x="0"
     inkscape:window-y="25"
     inkscape:window-maximized="1"
     inkscape:current-layer="layer1" />
  <rect
     width="702.66364"
     height="848.71106"
     rx="67.456139"
     id="rect2"
     x="36.863121"
     y="106.49344"
     style="display:inline;stroke-width:74.1358" />
  <path
     d="m 907.99847,187.97021 c 0,-44.99832 30.20011,-81.47677 67.45612,-81.47677 h 5.61908 c 37.25613,0 67.45623,36.47837 67.45623,81.47677 v 685.75995 c 0,44.99881 -30.2001,81.47433 -67.45623,81.47433 h -5.61908 c -37.25601,0 -67.45612,-36.47552 -67.45612,-81.47433 z"
     id="path4"
     style="stroke-width:74.1358" />
  <path
     d="M 992.49403,402.25252 V 123.48151 c 0,-16.98807 0,-16.98807 -11.50125,-16.98807 h -78.37731 c -21.28241,0 -40.93913,16.74763 -51.60395,43.97391 L 719.40459,486.85638 c -10.64053,27.22465 -10.64053,60.72792 0,87.95583 l 131.60693,336.41926 c 10.66482,27.22954 30.32154,43.97302 51.60395,43.97302 h 78.37731 c 11.50125,0 11.50125,0 11.50125,-16.97162 V 627.46902 c 0,-11.74732 -0.11472,-225.2165 0,-225.2165 z"
     id="path6"
     style="stroke-width:74.1358" />
  <g
     inkscape:groupmode="layer"
     id="layer1"
     inkscape:label="Layer 1"
     style="display:inline">
    <rect
       style="fill:#000000;fill-opacity:1;stroke-width:0.996294"
       id="rect443"
       width="705.54651"
       height="847.97113"
       x="34.22427"
       y="106.77126" />
  </g>
</svg>
